PathFileType	4	(X/Y/Z)	C:/Users/opensim2020/Desktop/walking_exp_matlab/subject02_walking04_straight_02.trc	
DataRate	CameraRate	NumFrames	NumMarkers	Units	OrigDataRate	OrigDataStartFrame	OrigNumFrames	
100.00	100.00	5	42	mm	100.00	1606	220	
Frame#	Time	LFHD			RFHD			LBHD			RBHD			C7			T10			CLAV			STRN			RBAK			LSHO			LUPA			LELB			LFRM			LWRA			LWRB			LFIN			RSHO			RUPA			RELB			RFRM			RWRA			RWRB			RFIN			LASI			RASI			LPSI			RPSI			LTHI			LKNE			LTIB			LANK			LHEE			LTOE			RTHI			RKNE			RTIB			RANK			RHEE			RTOE			*39			*40			*41			
		X1	Y1	Z1	X2	Y2	Z2	X3	Y3	Z3	X4	Y4	Z4	X5	Y5	Z5	X6	Y6	Z6	X7	Y7	Z7	X8	Y8	Z8	X9	Y9	Z9	X10	Y10	Z10	X11	Y11	Z11	X12	Y12	Z12	X13	Y13	Z13	X14	Y14	Z14	X15	Y15	Z15	X16	Y16	Z16	X17	Y17	Z17	X18	Y18	Z18	X19	Y19	Z19	X20	Y20	Z20	X21	Y21	Z21	X22	Y22	Z22	X23	Y23	Z23	X24	Y24	Z24	X25	Y25	Z25	X26	Y26	Z26	X27	Y27	Z27	X28	Y28	Z28	X29	Y29	Z29	X30	Y30	Z30	X31	Y31	Z31	X32	Y32	Z32	X33	Y33	Z33	X34	Y34	Z34	X35	Y35	Z35	X36	Y36	Z36	X37	Y37	Z37	X38	Y38	Z38	X39	Y39	Z39	X40	Y40	Z40	X41	Y41	Z41	X42	Y42	Z42	

111	1.100	1544.75317	112.65386	1713.20032	1403.45239	133.72467	1692.49170	1572.09277	246.95317	1650.76575	1433.33289	280.54623	1630.32654	1504.76917	321.51843	1509.51221	1494.92798	380.33777	1232.47424	1506.54407	185.35786	1435.23254	1494.04858	136.62469	1264.72302	1444.91150	388.76477	1334.48291	1677.87854	241.58197	1482.18311	1778.32214	201.36090	1298.40161	1812.18530	142.51443	1171.65112	1823.12341	48.84699	1075.66187	1788.00354	-72.98702	1020.78577	1821.58533	-39.24570	990.51221	1828.21948	-97.64629	961.63745	1314.11755	260.11423	1472.09241	1235.87537	317.55905	1286.92236	1219.84253	320.48459	1140.22119	1195.60205	311.15402	1021.52350	1205.62561	276.60510	889.71271	1181.33533	327.56433	892.67609	1171.81995	298.28506	826.69049	1625.03564	152.27956	966.94080	1368.09326	141.06467	962.02075	1533.54004	359.68820	1012.89581	1419.43286	360.46799	1011.94427	1665.38013	272.74457	664.26007	1632.57471	345.73801	473.20782	1632.43518	451.23074	308.16214	1595.35632	505.85995	89.08898	1545.91260	548.52228	68.69002	1598.87744	355.99442	33.14859	1286.34106	159.49942	663.18817	1325.05310	87.72363	467.86005	1311.41333	61.15265	284.04657	1336.54175	0.59077	97.05540	1394.89258	7.57420	35.66811	1319.07056	-162.68903	89.04510	1467.19409	219.36818	1786.81360	-3357.01807	2845.75488	1033.77734			 
112	1.110	1542.90125	103.07786	1712.27136	1401.66309	124.11340	1691.57324	1570.29919	237.34810	1649.72876	1431.56897	270.91479	1629.28210	1503.04590	311.79446	1508.39417	1493.12634	370.28467	1231.27112	1504.85168	175.54845	1434.23901	1492.61938	126.62431	1263.78918	1443.16284	378.54089	1333.09021	1676.18408	231.87462	1481.07642	1776.46082	192.48705	1297.01245	1810.19800	133.99994	1170.07751	1820.91638	40.08864	1073.93005	1785.78491	-82.05668	1019.32697	1819.40955	-47.82076	989.01770	1825.96741	-106.20168	960.12421	1312.36646	250.64265	1470.77942	1234.38525	307.92471	1285.63464	1218.37158	311.99896	1139.23853	1193.81543	303.29050	1020.38849	1204.02600	270.08582	888.22107	1179.53210	320.68149	891.75000	1170.02368	292.09570	825.52612	1623.95081	142.85852	965.65631	1367.09094	130.10199	961.08624	1531.22070	349.67865	1011.77722	1417.17993	349.96805	1010.99017	1664.50134	264.95166	663.59766	1632.04028	338.73398	472.94617	1632.28455	446.63699	309.49542	1595.85181	504.76468	91.23005	1546.50073	547.95654	71.81725	1598.82263	356.04321	33.02333	1284.70178	145.99632	662.91711	1324.47388	75.39526	467.03903	1312.18909	51.22427	282.72852	1338.63867	-6.86754	95.14737	1397.34424	1.01211	34.40744	1321.50964	-169.91505	85.19061	1465.34448	209.85489	1785.76160	-3357.23120	2845.90625	1033.69507			 
113	1.120	1540.71179	93.30612	1711.29700	1399.67126	114.53271	1690.61108	1568.33325	227.70976	1648.71631	1429.47571	261.08627	1628.28687	1501.19836	301.98071	1507.25525	1491.27393	360.16092	1230.09473	1503.02991	165.64667	1433.32654	1490.97607	116.35477	1262.75745	1441.26318	368.39615	1331.66431	1674.21326	221.97423	1479.93726	1774.15955	183.53488	1295.51941	1808.02502	125.73621	1168.46277	1818.83777	32.17393	1072.23059	1784.01953	-89.74433	1017.67145	1816.92871	-56.01788	986.93713	1823.86755	-114.13047	958.31097	1310.32385	240.80614	1469.51843	1232.63940	298.30902	1284.51990	1216.93652	303.20041	1138.12207	1192.30786	294.70792	1019.30713	1201.63831	262.53772	887.10675	1177.71716	313.55298	890.95471	1168.28870	285.74069	824.51941	1622.73596	133.24475	964.46661	1365.88538	118.87936	960.35071	1528.76526	339.46155	1010.64105	1414.67053	338.91110	1009.88336	1663.53906	256.72668	662.95483	1631.54126	331.30859	472.76022	1632.08118	441.78513	311.09094	1596.16943	503.50049	93.48058	1547.20984	547.17212	75.24041	1598.97119	355.92908	32.90900	1282.89722	131.82317	662.71442	1324.20398	63.76580	466.29260	1312.88953	41.96976	281.29672	1340.75171	-13.01879	93.12069	1399.70959	-4.05767	32.63248	1323.88269	-175.68745	80.82770	1463.43237	200.37196	1784.80298	-3360.28882	2845.17603	1033.71094			 
114	1.130	1538.88501	83.87708	1710.56897	1397.60974	104.89798	1689.76855	1566.35815	218.06236	1647.76782	1427.55872	251.55266	1627.11169	1499.25134	292.07281	1506.16602	1489.14209	349.77728	1228.83533	1501.11877	155.67570	1432.37805	1489.52722	106.11983	1262.03943	1439.72754	358.65265	1330.50525	1672.53882	212.43025	1479.09460	1772.17444	174.97441	1294.44312	1805.66858	117.75758	1166.76318	1816.30078	24.35730	1070.11853	1781.85999	-97.36517	1015.44452	1814.58777	-63.27299	984.71429	1821.50989	-121.42085	955.84692	1308.55896	230.93132	1468.37292	1230.96826	288.91937	1283.28455	1215.21814	294.30325	1137.23938	1190.31787	286.89270	1018.66577	1199.82739	255.11111	886.07471	1175.85120	306.05917	890.16681	1166.13354	278.49542	823.54669	1621.34106	123.34754	963.32373	1364.49084	107.43204	959.79407	1526.10571	328.94370	1009.43018	1412.15564	327.92142	1008.91205	1662.45947	248.09035	662.30719	1630.85376	323.61517	472.64886	1631.67102	436.64316	312.85175	1596.64795	502.28488	96.36903	1547.38965	545.85944	78.59261	1599.16113	355.81244	32.87057	1281.37769	116.86942	662.75330	1323.30493	52.20960	465.36743	1313.41614	33.59869	279.35272	1342.73584	-17.88688	90.70386	1401.89294	-7.67760	31.00319	1326.12292	-180.17026	76.19572	1461.43286	190.91753	1783.95715	-3357.34033	2845.84546	1033.91626			 
115	1.140	1536.75818	74.18668	1709.86292	1395.40442	95.31136	1688.83313	1563.91284	208.21133	1646.67810	1425.39502	241.87122	1626.02625	1497.12915	282.17581	1505.08667	1486.92456	339.34042	1227.56641	1499.16675	145.63583	1431.45825	1487.86963	95.71513	1261.24365	1437.67090	348.31039	1329.23193	1670.29321	202.58220	1478.04248	1769.53845	166.18665	1292.99768	1803.15027	110.09279	1165.05518	1814.06470	17.22041	1068.13501	1779.62988	-104.66979	1012.95886	1811.87500	-70.29104	981.96307	1818.89502	-128.41118	952.84027	1306.61975	221.04860	1467.22888	1229.35120	279.84943	1282.38220	1213.40063	285.16437	1136.38245	1188.25183	278.08176	1017.61993	1197.88013	247.23772	884.77637	1173.95203	298.41461	889.40485	1164.26428	271.19022	822.65613	1619.84875	113.13792	962.24792	1362.91736	95.68450	959.40271	1523.35083	318.19339	1008.19269	1409.52612	316.69836	1007.93451	1661.29651	239.05458	661.66168	1630.12683	315.49893	472.57263	1631.15308	431.33759	314.84113	1596.89685	500.61832	99.21369	1547.75208	544.34674	82.42073	1599.39832	355.67038	32.86459	1279.70227	102.31937	662.61206	1322.41650	41.25048	464.16516	1313.80298	25.91285	277.53595	1344.44482	-21.64708	88.29925	1402.81152	-9.53853	30.00966	1328.33752	-183.59811	70.90029	1459.13831	181.44489	1782.86011						 
